<svg id="Layer_1" data-name="Layer 1" xmlns="http://www.w3.org/2000/svg" viewBox="0 0 119.18 74.49"><defs><style>.cls-1{fill:#70b0cc;}.cls-2{fill:#fff;}</style></defs><path class="cls-1" d="M69.63,26V40.9H117.3a6.12,6.12,0,0,1,6,6V94.53a5.85,5.85,0,0,1-1.79,4.32,6,6,0,0,1-4.17,1.64H10a6.17,6.17,0,0,1-4.32-1.64,6.17,6.17,0,0,1-1.64-4.32V47a6.17,6.17,0,0,1,1.64-4.32A5.85,5.85,0,0,1,10,40.9H57.71V26.15" transform="translate(-4.08 -26)"/><path class="cls-2" d="M83.19,66.52a5.94,5.94,0,0,0-1.64,4.17,5.61,5.61,0,0,0,1.64,4.17,5.85,5.85,0,0,0,4.32,1.79,5.68,5.68,0,0,0,4.17-1.79,5.41,5.41,0,0,0,1.79-4.17,6.12,6.12,0,0,0-6-6,5.89,5.89,0,0,0-4.32,1.79" transform="translate(-4.08 -26)"/><path class="cls-2" d="M108.36,64.73A5.92,5.92,0,0,0,104,66.52a6,6,0,0,0-1.64,4.17A5.65,5.65,0,0,0,104,74.86a5.88,5.88,0,0,0,4.32,1.79,5.68,5.68,0,0,0,4.17-1.79,5.38,5.38,0,0,0,1.79-4.17,6.12,6.12,0,0,0-6-6" transform="translate(-4.08 -26)"/><polyline class="cls-2" points="32.77 26.82 20.86 26.82 20.86 38.59 8.94 38.59 8.94 50.5 20.86 50.5 20.86 62.42 32.77 62.42 32.77 50.5 44.54 50.5 44.54 38.59 32.77 38.59 32.77 26.82"/></svg>