<?xml version="1.0" encoding="UTF-8"?>
<svg viewBox="0 0 381.32159 267.71429" xmlns="http://www.w3.org/2000/svg">
 <g transform="translate(-131.86 -154.22)" stroke="#000" stroke-linecap="round" stroke-linejoin="round">
  <path d="m147.14 156.65v248.57h353.43l2.2802-250-355.71 1.4286z" fill="#fff" stroke-dashoffset="1.5" stroke-width="2"/>
  <path d="m155.12 166.35 1.1401 224.29 335.19 1.4286 2.2802-225.71h-338.61z" fill="#fff" stroke-dashoffset="1.5" stroke-width="2"/>
  <g transform="matrix(1 0 0 .85942 98.929 -50.847)" stroke-dashoffset="1.5" stroke-width="2.1574">
   <path d="m212.86 521.72v12.179c0.5191 1.1628 0.3469 2.5792 3.5714 2.75l52.143-0.3929c1.9456-0.1082 3.8765-0.2327 3.9615-2.3875l-0.033-13.648-59.643 1.5z"/>
   <path d="m210.36 502.72v18.214l65.357-1.0714v-17.143h-65.357z" fill="#fff"/>
  </g>
  <path d="m439.75 399.04 14.152-2.2283c0.9061 4.2443 0.1625 8.4886 0 12.733l-13.83-2.2283-0.3216-8.2764z" fill="#fff" stroke-dashoffset="1.5" stroke-width="2"/>
  <path d="m389.57 395.58c-0.9815 5.6072-0.741 10.726 0 14.643h50.818c1.4259-4.5336 1.6503-8.4503 0-14.324l-50.818-0.3183z" fill="#fff" stroke-dashoffset="1.5" stroke-width="2"/>
  <path d="m454.52 406.04h3.623l-0.0603-5.7298h-3.8596l0.2969 5.7298z" fill="#fff" stroke-dashoffset="1.5" stroke-width="2"/>
  <path d="m132.86 405.22 379.32-0.0867-3.8522 15.801-371-1.4286-4.4699-14.286z" fill="#fff" stroke-dashoffset="1.5" stroke-width="2"/>
  <path d="m318.76 238.83h22.521" fill="#fff" fill-rule="evenodd" stroke-width="2"/>
  <path d="m261.99 211.38c16.156 0.0588 32.313-1.6444 48.469-1.4334 5.8768 0.8859 9.7249 9.1128 8.3084 14.779-0.0989 10.412 0.3347 20.835-0.2631 31.239-1.4051 5.3942-6.6505 9.5125-11.911 8.3105-15.256-0.0946-31.404-0.6699-46.658-1.0694-5.0723-0.459-8.6217-7.4946-7.7615-13.664 0.1644-10.45-0.5432-20.929 0.4447-31.355 1.2885-3.9409 5.2223-6.917 9.3719-6.8067z" fill="none" stroke-width="2"/>
  <path d="m366.99 285.61-28.158 27.452 28.899 27.452 25.935-27.452-26.676-27.452z" fill="#fff" fill-rule="evenodd" stroke-width="2"/>
  <path d="m391.18 239.54c1.2582 25.354-34.016 37.789-45.888 15.894-13.132-18.252 4.424-49.172 24.841-42.689 11.301 2.1157 21.942 13.292 21.047 26.795z" fill="#fff" stroke-width="2"/>
  <path d="m366.74 266.29v18.302" fill="#fff" fill-rule="evenodd" stroke-width="2"/>
  <path d="m340.79 314.07-39.657 2.0335c-8.3861 0.073-12.679-2.8566-14.688-13.218v-38.637" fill="#fff" fill-rule="evenodd" stroke-width="2"/>
  <path d="m331 231.72-0.4896 13.726 9.7919-7.1173-9.3023-6.6089z" fill="#fff" fill-rule="evenodd" stroke-width="2"/>
  <path d="m373.6 275.03-13.716 0.3182 7.3368 8.0469 6.379-8.3651z" fill="#fff" fill-rule="evenodd" stroke-width="2"/>
  <path d="m280.74 272.5 13.692-0.8951-7.6448-7.7316-6.0473 8.6266z" fill="#fff" fill-rule="evenodd" stroke-width="2"/>
 </g>
</svg>
