<?xml version="1.0" encoding="UTF-8"?>
<svg viewBox="0 0 353.21 182.19" xmlns="http://www.w3.org/2000/svg">
 <g fill-rule="evenodd">
  <path d="m549.38-24.123c5.1182-1.3725 3.1959 5.057 8.3141 3.6845 2.727 3.9424-4.2385 8.9424-1.6628 18.421l-3.0479-0.9211-1.9405 2.7634c-3.7164-0.79402-0.67346-9.0787-1.6628-12.896l0.7383-5.0146-4.0639-2.3526v-1.8423l2.4942 0.9211 0.8314-2.7634z"/>
  <path d="m554.09 0.7439l1.9405-2.7634c11.422 7.6067 21.352 16.868 31.589 25.79 1.1589 9.2648-2.8202 12.839-1.6628 22.104-50.959 5.1233-97.558 11.404-146.31 18.421-15.35 2.2089-33.024 3.084-46.554 7.3672-20.105 6.3669-27.38 22.402-51.541 25.79-11.803 1.6525-20.544-3.3069-33.251-1.8423-15.369 1.7704-33.73 13.519-49.88 20.261-48.062 20.072-98.258 41.936-141.32 66.314-12.93-14.694-20.346-34.087-29.927-51.578-27.752-50.666-58.212-102.9-86.455-154.73-1.4882-5.9468 5.4224-2.5884 6.6513-5.5268l2.4942 0.9211 2.4942-0.9211c34.698 63.483 70.442 125.81 106.41 187.89 0.98938-3.8153-2.0552-12.1 1.6628-12.894l1.9405 2.7634 3.0479-0.9211c2.2066 8.0765-3.1427 17.253-1.6628 18.421 61.002-33.113 107.41-82.394 199.51-81.05-1.41-21.208 8.7231-29.631 14.962-42.367-2.6322-0.15291-6.3403 0.88614-6.6496-1.8423l0.8314-2.7616-0.8314-2.7634c1.4151 0.33897 1.568-0.71848 1.6628-1.8423l2.2548-2.2365-0.5919-3.2903c6.4268 0.24871 6.5565 7.4722 11.638 9.2113l2.0187 2.4981 2.9681-0.6559c-1.1108 7.9789-7.6938 9.8948-8.3124 18.419 7.8319-0.53242 11.771-5.3776 21.613-3.6827 6.5548 1.9473 6.3386 11.4 9.9769 16.577 32.47-44.459 112.37-36.368 182.89-38.682-1.9771-10.705-6.9074-18.135-6.6513-31.315l3.0463 0.9211z"/>
  <path d="m10.417-32.411l-3.0479 0.9211c0.13801-2.9163-0.79982-7.0264 1.6628-7.3691l1.9405 2.7634 3.0479-0.9211c-0.13801 2.9163 0.79982 7.0246-1.6628 7.3691l-1.9405-2.7634z"/>
  <g fill="none" stroke="#000" stroke-linecap="round">
   <path d="m552.98-2.9388c0.36914 1.2288 0.73828 2.4557 1.1074 3.6845" stroke-width="3.162"/>
   <path d="m9.8631-28.727c0.066512-1.2288 0.30596-2.4557 0.55372-3.6845" stroke-width="3.082"/>
   <path d="m10.972-36.096c1.4034-9.0953 2.6356-20.757 11.194-25.053" stroke-width="3.339"/>
   <path d="m22.166-61.147c52.01-38.238 124.8-98.978 185.31-42.578" stroke-width="2.281"/>
   <path d="m207.48-103.73c35.806-66.24 114.06-33.367 171.23-47.424 56.218 43.778 114.89 84.564 169.84 129.79" stroke-width="2.328"/>
   <path d="m348.56 39.164c45.829-69.407 134.54-44.424 201.56-57.248" stroke-width="3.99"/>
   <path d="m207.48-103.73c43.321 44.014 84.506 90.809 128.02 134.47" stroke-width="3.038"/>
   <path d="m22.166-61.147c36.61 56.979 67.065 119.4 103.25 177.02" stroke-width="2.616"/>
   <path d="m125.42 115.87c66.158-33.391 129.57-89.676 206.99-78.285" stroke-width="2.981"/>
   <path d="m125.42 115.87c-0.92453 10.752-1.5464 21.542-3.048 32.236" stroke-width="3.728"/>
  </g>
 </g>
</svg>
