<?xml version="1.0" encoding="UTF-8"?>
<svg width="258.15mm" height="197.1mm" version="1.1" viewBox="0 0 914.70924 698.38579" xmlns="http://www.w3.org/2000/svg">
 <g transform="translate(114.5 -234.6)">
  <rect x="-114.5" y="234.6" width="914.71" height="698.39" fill="#ff7043"/>
  <g transform="translate(-31.031 273.23)">
   <path d="m298.81 493.84 151.57 3.4269 12.462 118.61h-177.11z" fill="#f2f2f2"/>
   <path d="m298.81 493.84-3.9596 36.93h159.05l-3.52-33.502-151.57-3.428z" fill="#ccc"/>
   <rect transform="scale(1,-1)" x="31.502" y="-522.27" width="685.57" height="450.14" ry="31.215" fill="#fff" fill-rule="evenodd"/>
   <path d="m31.401 62.617v396.88h685.77v-396.88zm16.165 20.51h650.46l-87.235 326.89-487.45-32.603z" fill="#333" fill-rule="evenodd"/>
   <rect x="31.419" y="33.554" width="685.72" height="188.97" ry="35.485" fill="#333"/>
   <rect x="59.136" y="63.706" width="630.3" height="363.17" fill="#ececec" fill-rule="evenodd"/>
   <rect x="234.62" y="597.91" width="279.33" height="17.969" ry="5.1943" fill="#fff"/>
   <circle cx="374.29" cy="491.68" r="17.623" fill="#333"/>
  </g>
  <rect x="28.017" y="336.84" width="631.33" height="363.77" fill="#4fc3f7" fill-rule="evenodd"/>
  <path d="m659.11 399.67-631.09 15.649v118.42c191.86-133.64 427.79-100.33 631.09-131.97z" fill="#81d4fa" fill-rule="evenodd"/>
  <path d="m28.016 388.83v112.62c235.57-94.957 426.25-81.458 630.5-100.08v-4.6852z" fill="#b3e5fc" fill-rule="evenodd"/>
  <rect x="168.02" y="336.84" width="4.9998" height="363.77" fill="#03a9f4" fill-rule="evenodd"/>
  <rect x="249.43" y="427.24" width="332.59" height="213.4" fill="#fff" fill-rule="evenodd"/>
  <rect x="47.225" y="657.39" width="108.84" height="37.628" fill="#fff"/>
  <rect x="28.017" y="688.53" width="631.33" height="12.076" fill="#ececec" fill-rule="evenodd"/>
  <rect x="28.017" y="336.84" width="631.33" height="72.138" fill="#03a9f4" fill-rule="evenodd"/>
  <rect x="28.017" y="336.84" width="631.33" height="17.264" fill="#039be5" fill-rule="evenodd"/>
  <rect x="31.07" y="339.89" width="8.733" height="8.8811" fill="#fff"/>
  <rect x="32.106" y="350.15" width="7.6969" height="7.8274" fill="#fff"/>
  <rect x="41.327" y="343.58" width="5.1066" height="5.1932" fill="#fff"/>
  <rect x="41.327" y="350.15" width="6.6226" height="6.7348" fill="#fff"/>
  <rect x="31.246" y="366.57" width="71.59" height="34.33" ry="6.2799" fill="#b3e5fc"/>
  <rect x="107.86" y="366.57" width="150.3" height="34.33" ry="6.2799" fill="#b3e5fc"/>
  <rect x="265.28" y="366.57" width="139.64" height="34.33" ry="6.2799" fill="#b3e5fc"/>
  <rect x="622.29" y="366.57" width="33.068" height="34.33" ry="6.2799" fill="#b3e5fc"/>
  <rect x="410.41" y="366.57" width="207.14" height="34.33" ry="6.2799" fill="#b3e5fc"/>
  <rect x="416.91" y="371.57" width="31.38" height="25.163" ry="2.0933" fill="#fff"/>
  <rect x="457.1" y="371.57" width="31.38" height="25.163" ry="2.0933" fill="#fff"/>
  <rect x="497.29" y="371.57" width="31.38" height="25.163" ry="2.0933" fill="#fff"/>
  <rect x="537.48" y="371.57" width="31.38" height="25.163" ry="2.0933" fill="#fff"/>
  <rect x="577.68" y="371.57" width="31.38" height="25.163" ry="2.0933" fill="#fff"/>
  <rect x="113.07" y="373.05" width="117.82" height="10.361" ry="2.0933" fill="#fff"/>
  <rect x="234.89" y="373.34" width="16.282" height="10.657" ry="2.0933" fill="#fff"/>
  <rect x="36.27" y="371.18" width="21.77" height="22.398" ry="2.0933" fill="#ffd54f"/>
  <rect x="46.318" y="378.72" width="15.072" height="18.421" ry="2.0933" fill="#fff"/>
  <rect x="240.96" y="388" width="9.6211" height="9.6211" ry="1.4062" fill="#ba68c8"/>
  <rect x="229.41" y="388" width="9.6211" height="9.6211" ry="1.4062" fill="#ef5350"/>
  <rect x="67.669" y="373.69" width="29.411" height="5.5472" ry="1.1513" fill="#64b5f6"/>
  <rect x="67.669" y="381.86" width="29.411" height="5.5472" ry="1.1513" fill="#64b5f6"/>
  <rect x="67.669" y="390.12" width="29.411" height="5.5472" ry="1.1513" fill="#64b5f6"/>
  <rect x="119.16" y="389.08" width="30.667" height="7.4312" ry="1.5423" fill="#64b5f6"/>
  <rect x="154.12" y="389.08" width="30.667" height="7.4312" ry="1.5423" fill="#64b5f6"/>
  <rect x="190.13" y="389.08" width="30.667" height="7.4312" ry="1.5423" fill="#64b5f6"/>
  <rect x="626.3" y="372" width="24.911" height="6.4445" ry="1.3375" fill="#64b5f6"/>
  <rect x="626.3" y="381.06" width="24.911" height="7.0695" ry="1.4672" fill="#64b5f6"/>
  <rect x="626.3" y="390.71" width="24.911" height="6.0873" ry="1.2634" fill="#64b5f6"/>
  <path d="m52.828 354.84 7.1049-12.285h49.734l6.8088 13.026z" fill="#03a9f4" fill-rule="evenodd"/>
  <path d="m109.37 354.84 7.1048-12.285h49.734l6.8088 13.026z" fill="#03a9f4" fill-rule="evenodd"/>
  <path d="m164.73 354.84 7.1048-12.285h49.734l6.8088 13.026z" fill="#03a9f4" fill-rule="evenodd"/>
  <path d="m219.79 354.84 7.4678-12.285h78.44l9.1191 13.026z" fill="#03a9f4" fill-rule="evenodd"/>
  <path d="m306.56 354.84 3.9092-12.285h75.3l10.166 13.026z" fill="#03a9f4" fill-rule="evenodd"/>
  <rect x="60.134" y="342.29" width="157.83" height="8.7918" fill="#fff"/>
  <rect x="32.711" y="691.03" width="42.494" height="7.5358" fill="#b3b3b3"/>
  <rect x="647.06" y="691.03" width="7.5615" height="7.5358" fill="#b3b3b3"/>
  <rect x="637.59" y="691.03" width="7.5615" height="7.5358" fill="#b3b3b3"/>
  <rect transform="rotate(90)" x="656.39" y="-659.29" width="4.9998" height="488.13" fill="#03a9f4" fill-rule="evenodd"/>
  <rect x="173" y="664.39" width="486.25" height="20.544" fill="#fff" fill-rule="evenodd"/>
  <rect x="28.032" y="423.04" width="140.41" height="3.283" fill="#03a9f4"/>
  <rect x="33.335" y="429.35" width="127.28" height="74.499" fill="#ff7043"/>
  <rect x="47.225" y="434.15" width="108.84" height="65.407" fill="#fff"/>
  <rect x="47.225" y="509.41" width="108.84" height="65.407" fill="#fff"/>
  <rect x="47.225" y="583.15" width="108.84" height="65.407" fill="#fff"/>
  <rect x="302.28" y="456.09" width="228.85" height="30.684" fill="#fff" stroke="#26c6da" stroke-width="2.0514"/>
  <rect x="328.04" y="505.03" width="176.2" height="23.264" fill="#fff" stroke="#26c6da" stroke-width="1.5673"/>
  <rect x="56.688" y="514.64" width="89.917" height="7.7113" fill="#fff" stroke="#666" stroke-width=".64462"/>
  <rect x="57.101" y="526.42" width="89.092" height="40.473" fill="#fff" stroke="#666" stroke-width=".77"/>
  <rect x="56.688" y="591.41" width="89.917" height="7.7113" fill="#fff" stroke="#4caf50" stroke-width=".64462"/>
  <rect x="63.75" y="606.47" width="3.0357" height="3.0357" fill="#fff" stroke="#4caf50" stroke-width=".77"/>
  <rect x="63.75" y="612.4" width="3.0357" height="3.0357" fill="#fff" stroke="#4caf50" stroke-width=".77"/>
  <rect x="63.75" y="618.09" width="3.0357" height="3.0357" fill="#fff" stroke="#4caf50" stroke-width=".77"/>
  <rect x="63.75" y="623.39" width="3.0357" height="3.0357" fill="#fff" stroke="#4caf50" stroke-width=".77"/>
  <rect x="72.732" y="607.1" width="69.952" height="1.674" fill="#fff" stroke="#4caf50" stroke-width=".77"/>
  <rect x="72.732" y="612.91" width="69.952" height="1.674" fill="#fff" stroke="#4caf50" stroke-width=".77"/>
  <rect x="72.732" y="618.34" width="69.952" height="1.674" fill="#fff" stroke="#4caf50" stroke-width=".77"/>
  <rect x="72.732" y="623.9" width="69.952" height="1.674" fill="#fff" stroke="#4caf50" stroke-width=".77"/>
  <rect x="72.708" y="630.06" width="59.898" height="1.7215" fill="#fff" stroke="#4caf50" stroke-width=".72255"/>
  <rect x="56.688" y="664.63" width="89.917" height="7.7113" fill="#fff" stroke="#ff7043" stroke-width=".64462"/>
  <rect x="63.75" y="680.04" width="3.0357" height="3.0357" fill="#fff" stroke="#ff7043" stroke-width=".77"/>
  <rect x="72.732" y="680.68" width="69.952" height="1.674" fill="#fff" stroke="#ff7043" stroke-width=".77"/>
  <rect x="404.57" y="565.47" width="26.264" height="7.5761" fill="#fff" stroke="#00bcd4" stroke-width=".77"/>
  <rect x="294.46" y="592.74" width="257.08" height="6.0609" fill="#fff" stroke="#00bcd4" stroke-width=".77"/>
  <rect x="324.26" y="606.38" width="189.91" height="6.0609" fill="#fff" stroke="#00bcd4" stroke-width=".77"/>
  <rect x="275.48" y="371.57" width="31.38" height="25.163" ry="2.0933" fill="#ec407a"/>
  <rect x="318.34" y="371.57" width="31.38" height="25.163" ry="2.0933" fill="#795548"/>
  <rect x="362.98" y="371.57" width="31.38" height="25.163" ry="2.0933" fill="#26a69a"/>
  <rect x="66.038" y="441.95" width="70.593" height="9.465" fill="#fff" stroke="#26c6da" stroke-width=".63279"/>
  <rect x="73.983" y="457.05" width="54.352" height="7.176" fill="#fff" stroke="#26c6da" stroke-width=".48347"/>
  <rect x="97.59" y="475.69" width="8.1015" height="2.337" fill="#fff" stroke="#00bcd4" stroke-width=".23752"/>
  <rect x="63.626" y="484.11" width="79.301" height="1.8696" fill="#fff" stroke="#00bcd4" stroke-width=".23752"/>
  <rect x="72.818" y="488.31" width="58.58" height="1.8696" fill="#fff" stroke="#00bcd4" stroke-width=".23752"/>
  <path d="m72.059 412.56v10.542l42.56 0.1004-8.9-10.643z" fill="#039be5" fill-rule="evenodd"/>
  <path d="m31.325 412.56v10.462l42.56 0.0996-8.9-10.562z" fill="#03a9f4" fill-rule="evenodd"/>
 </g>
</svg>
