<?xml version="1.0" encoding="UTF-8"?><svg version="1.1" width="107" height="57" viewBox="0 0 107 57" xmlns="http://www.w3.org/2000/svg"><path d="m2 9.68c-0.96-0.96-1.44-2.1867-1.44-3.68s0.48-2.72 1.44-3.68 2.1867-1.44 3.68-1.44c1.5467 0 2.8 0.48 3.76 1.44s1.44 2.1867 1.44 3.68-0.48 2.72-1.44 3.68-2.2133 1.44-3.76 1.44c-1.4933 0-2.72-0.48-3.68-1.44zm-0.56 7.44h8.56v38.88h-8.56v-38.88zm28.28 36.28c-3.653-2.32-6.48-5.547-8.48-9.68s-3-8.867-3-14.2c0-5.493 1.04-10.387 3.12-14.68s4.987-7.64 8.72-10.04 8.053-3.6 12.96-3.6c4.8 0 9.027 1.1467 12.68 3.44s6.48 5.52 8.48 9.68 3 8.907 3 14.24c0 5.6-1.013 10.533-3.04 14.8s-4.907 7.587-8.64 9.96-8.107 3.56-13.12 3.56c-4.8 0-9.027-1.16-12.68-3.48zm21.08-6.2c2.347-1.813 4.147-4.307 5.4-7.48s1.88-6.787 1.88-10.84c0-3.947-0.64-7.493-1.92-10.64s-3.08-5.613-5.4-7.4c-2.32-1.7867-5-2.68-8.04-2.68-3.093 0-5.8 0.9067-8.12 2.72-2.32 1.813-4.107 4.32-5.36 7.52s-1.88 6.827-1.88 10.88c0 3.893 0.627 7.413 1.88 10.56s3.053 5.613 5.4 7.4 5.04 2.68 8.08 2.68 5.733-0.907 8.08-2.72zm22.48 6.32l2-7.2c3.733 2.293 7.867 3.44 12.4 3.44 3.2 0 5.733-0.747 7.6-2.24s2.8-3.467 2.8-5.92c0-2.187-0.76-4.027-2.28-5.52s-4.013-2.907-7.48-4.24c-4.747-1.813-8.293-4-10.64-6.56s-3.52-5.547-3.52-8.96c0-2.933 0.76-5.533 2.28-7.8 1.52-2.2667 3.667-4.04 6.44-5.32s5.947-1.92 9.52-1.92c5.013 0 9.07 0.8533 12.16 2.56l-2.16 6.96c-2.987-1.6533-6.4-2.48-10.24-2.48-2.773 0-5.027 0.6533-6.76 1.96-1.733 1.307-2.6 3.027-2.6 5.16 0 1.387 0.307 2.587 0.92 3.6s1.653 1.973 3.12 2.88 3.56 1.92 6.28 3.04c4.64 1.867 8.07 4.093 10.28 6.68s3.32 5.693 3.32 9.32c0 3.147-0.8 5.92-2.4 8.32s-3.87 4.253-6.8 5.56c-2.933 1.307-6.4 1.96-10.4 1.96-5.653 0-10.267-1.093-13.84-3.28z"/></svg>
